<svg width="64" height="64" viewBox="0 0 64 64" xmlns="http://www.w3.org/2000/svg" role="img" aria-label="Carrack Tracker anchor">
  <defs>
    <linearGradient id="ink" x1="0" y1="0" x2="0" y2="1">
      <stop offset="0%" stop-color="#13203a"/>
      <stop offset="100%" stop-color="#070c16"/>
    </linearGradient>
    <linearGradient id="brass" x1="0" y1="0" x2="1" y2="1">
      <stop offset="0%" stop-color="#f4dd9b"/>
      <stop offset="45%" stop-color="#e2c97e"/>
      <stop offset="100%" stop-color="#a8842f"/>
    </linearGradient>
  </defs>

  <rect x="0" y="0" width="64" height="64" rx="14" fill="url(#ink)"/>

  <g stroke="rgba(200,168,75,0.10)" stroke-width="1">
    <path d="M16 4V60M32 4V60M48 4V60M4 16H60M4 32H60M4 48H60"/>
  </g>

  <rect x="3.5" y="3.5" width="57" height="57" rx="12" fill="none" stroke="rgba(200,168,75,0.30)" stroke-width="1.5"/>

  <g fill="none" stroke="url(#brass)" stroke-width="4.6" stroke-linecap="round" stroke-linejoin="round">
    <circle cx="32" cy="14" r="4.6"/>
    <path d="M32 18.5V49"/>
    <path d="M20.5 23.5H43.5"/>
    <path d="M13 34.5C14 49.5 50 49.5 51 34.5"/>
  </g>

  <path d="M13 35.5 L6.5 25.5 L19.5 29.5 Z" fill="url(#brass)"/>
  <path d="M51 35.5 L57.5 25.5 L44.5 29.5 Z" fill="url(#brass)"/>

  <circle cx="32" cy="14" r="1.7" fill="#070c16"/>
</svg>
